<?xml version="1.0" standalone="no"?>
<!DOCTYPE svg PUBLIC "-//W3C//DTD SVG 20010904//EN"
 "http://www.w3.org/TR/2001/REC-SVG-20010904/DTD/svg10.dtd">
<svg version="1.0" xmlns="http://www.w3.org/2000/svg"
 width="341.000000pt" height="118.000000pt" viewBox="0 0 341.000000 118.000000"
 preserveAspectRatio="xMidYMid meet">

<g transform="translate(0.000000,118.000000) scale(0.100000,-0.100000)"
fill="#FFF" stroke="none">
<path d="M1410 1034 c-6 -14 -10 -35 -9 -47 1 -12 5 -3 11 21 l9 42 49 0 49 0
10 -52 c6 -29 22 -114 37 -188 23 -119 43 -188 44 -153 0 19 -70 353 -80 379
-8 21 -16 24 -60 24 -45 0 -52 -3 -60 -26z"/>
<path d="M1872 971 c-8 -5 -12 -23 -10 -47 3 -39 3 -39 51 -42 42 -3 47 -1 47
17 0 12 -4 21 -10 21 -5 0 -10 -4 -10 -10 0 -5 -13 -10 -30 -10 -27 0 -30 3
-30 30 0 27 3 30 30 30 17 0 30 -4 30 -10 0 -5 5 -10 10 -10 6 0 10 6 10 14 0
22 -62 34 -88 17z"/>
<path d="M2028 973 c-14 -3 -18 -15 -18 -49 l0 -44 51 0 c31 0 48 4 44 10 -3
6 -22 10 -41 10 -19 0 -34 5 -34 10 0 6 9 10 20 10 11 0 20 5 20 10 0 6 -9 10
-20 10 -11 0 -20 5 -20 10 0 6 16 10 35 10 19 0 35 5 35 10 0 10 -40 12 -72 3z"/>
<path d="M2168 973 c-14 -3 -18 -15 -18 -49 0 -24 5 -44 10 -44 6 0 10 9 10
20 0 17 7 20 40 20 36 0 40 3 40 24 0 32 -30 43 -82 29z m60 -25 c-7 -20 -58
-23 -58 -4 0 11 10 16 31 16 20 0 29 -4 27 -12z"/>
<path d="M2303 973 c-8 -3 -13 -23 -13 -49 l0 -44 45 0 c25 0 45 5 45 10 0 6
-16 10 -35 10 -19 0 -35 5 -35 10 0 6 9 10 20 10 11 0 20 5 20 10 0 6 -9 10
-20 10 -11 0 -20 5 -20 10 0 6 16 10 36 10 21 0 33 4 29 10 -6 10 -50 12 -72
3z"/>
<path d="M2422 931 c-2 -22 2 -42 8 -46 6 -4 10 7 10 27 l1 33 18 -22 c11 -13
22 -23 26 -23 4 0 15 10 26 23 l18 22 1 -32 c0 -18 5 -33 10 -33 6 0 10 20 10
45 0 51 -11 56 -44 19 l-22 -26 -17 26 c-25 38 -43 33 -45 -13z"/>
<path d="M2622 958 c-20 -26 -42 -78 -33 -78 5 0 13 5 16 10 9 14 58 13 73 -2
23 -23 24 1 1 41 -23 42 -39 50 -57 29z m32 -23 c4 -10 -1 -15 -14 -15 -13 0
-18 5 -14 15 4 8 10 15 14 15 4 0 10 -7 14 -15z"/>
<path d="M1391 944 c0 -11 3 -14 6 -6 3 7 2 16 -1 19 -3 4 -6 -2 -5 -13z"/>
<path d="M1382 890 c0 -19 2 -27 5 -17 2 9 2 25 0 35 -3 9 -5 1 -5 -18z"/>
<path d="M1860 788 c0 -18 4 -28 8 -22 4 7 16 13 27 15 30 6 25 33 -7 37 -26
3 -28 0 -28 -30z m40 12 c0 -5 -7 -10 -15 -10 -8 0 -15 5 -15 10 0 6 7 10 15
10 8 0 15 -4 15 -10z"/>
<path d="M1960 791 c0 -28 3 -31 31 -31 27 0 30 3 27 28 -2 21 -9 28 -30 30
-25 3 -28 0 -28 -27z m50 -1 c0 -13 -7 -20 -20 -20 -13 0 -20 7 -20 20 0 13 7
20 20 20 13 0 20 -7 20 -20z"/>
<path d="M2295 809 c-10 -15 3 -25 16 -12 7 7 7 13 1 17 -6 3 -14 1 -17 -5z"/>
<path d="M2547 813 c-10 -10 -8 -23 4 -23 5 0 8 4 4 9 -3 5 5 12 17 14 21 4
21 4 2 6 -11 0 -24 -2 -27 -6z"/>
<path d="M2650 795 c0 -21 3 -23 23 -16 33 12 35 41 3 41 -21 0 -26 -5 -26
-25z m40 5 c0 -5 -7 -10 -15 -10 -8 0 -15 5 -15 10 0 6 7 10 15 10 8 0 15 -4
15 -10z"/>
<path d="M2071 788 c-1 -24 3 -28 27 -27 22 0 24 2 8 8 -11 4 -23 16 -27 27
-6 16 -8 14 -8 -8z"/>
<path d="M2162 790 c0 -14 2 -19 5 -12 2 6 2 18 0 25 -3 6 -5 1 -5 -13z"/>
<path d="M2433 790 c1 -19 8 -25 27 -25 18 0 25 6 26 20 1 15 0 16 -3 3 -6
-25 -32 -22 -43 5 -10 22 -10 22 -7 -3z"/>
<path d="M2580 786 c0 -13 -5 -17 -20 -13 -11 3 -20 1 -20 -4 0 -13 47 -11 56
2 3 6 1 16 -5 22 -8 8 -11 6 -11 -7z"/>
<path d="M1646 408 c8 -44 33 -117 34 -99 0 28 -24 131 -32 131 -4 0 -5 -15
-2 -32z"/>
<path d="M1676 250 c3 -19 10 -42 15 -50 5 -9 6 -2 2 20 -3 19 -10 42 -15 50
-6 10 -7 3 -2 -20z"/>
</g>
</svg>
